<svg width="635" height="381" viewBox="0 0 635 381" className='active-waves-svg' fill="none" xmlns="http://www.w3.org/2000/svg">
<path d="M217.02 241.748C252.948 265.242 308.383 274.319 348.723 280.656C349.632 280.798 350.534 280.94 351.427 281.08C360.457 282.496 368.659 283.783 375.648 285.079C383.339 286.505 389.496 287.932 393.645 289.533C397.789 291.133 399.779 292.845 399.494 294.847C399.202 296.906 396.504 299.406 390.591 302.531C367.09 314.953 331.371 316.833 292.505 309.735C253.649 302.638 211.744 286.58 176.032 263.228C140.319 239.875 117.6 213.676 109.715 190.209C101.828 166.737 108.794 146.055 132.295 133.633C138.207 130.508 142.726 129.199 146.248 129.252C149.674 129.303 152.37 130.656 154.652 133.258C156.936 135.863 158.714 139.625 160.329 144.284C161.803 148.533 163.132 153.498 164.595 158.962C164.733 159.481 164.873 160.003 165.015 160.53C171.534 184.835 181.092 218.255 217.02 241.748Z" stroke="black" stroke-opacity="0.7"/>
<path d="M307.731 192.459C344.667 216.611 389.196 235.544 432.187 251.931C446.409 257.352 460.455 262.492 474.002 267.45C501.439 277.49 526.83 286.781 547.494 296.144C578.364 310.13 598.449 324.173 599.073 340.95C599.699 357.746 580.832 377.435 533.04 402.697C341.953 503.699 67.7369 507.372 -79.4665 411.117C-226.67 314.862 -191.393 154.948 -0.305804 53.945C23.5811 41.3192 43.9937 32.5193 61.7123 26.9662C79.4318 21.4127 94.4241 19.1168 107.481 19.4707C133.534 20.1768 152.182 31.4512 169.603 49.0404C178.305 57.8269 186.672 68.1593 195.487 79.4814C197.77 82.4141 200.083 85.4132 202.44 88.4685C209.177 97.2032 216.268 106.397 224.026 115.813C244.969 141.234 270.793 168.306 307.731 192.459Z" stroke="black" stroke-opacity="0.7"/>
<path d="M397.793 307.575C452.057 278.892 296.956 288.324 221.781 239.167C146.607 190.011 179.826 100.882 125.562 129.565C71.2976 158.247 88.2486 221.347 163.423 270.504C238.597 319.66 343.528 336.257 397.793 307.575Z" stroke="black" stroke-opacity="0.7"/>
<path d="M404.576 312.344C465.689 280.042 304.892 288.341 226.101 236.82C147.309 185.299 180.361 93.4675 119.248 125.77C58.1343 158.072 72.4651 226.025 151.256 277.546C230.048 329.067 343.463 344.647 404.576 312.344Z" stroke="black" stroke-opacity="0.7"/>
<path d="M411.359 317.114C479.322 281.192 312.828 288.359 230.42 234.473C148.012 180.587 180.896 86.0528 112.933 121.975C44.9711 157.898 56.6818 230.702 139.09 284.588C221.498 338.474 343.397 353.037 411.359 317.114Z" stroke="black" stroke-opacity="0.7"/>
<path d="M418.143 321.884C492.954 282.341 320.765 288.377 234.74 232.126C148.715 175.875 181.43 78.638 106.619 118.181C31.8079 157.723 40.8984 235.38 126.923 291.631C212.948 347.882 343.332 361.427 418.143 321.884Z" stroke="black" stroke-opacity="0.7"/>
<path d="M424.926 326.654C506.586 283.491 328.701 288.395 239.06 229.779C149.418 171.163 181.965 71.2232 100.305 114.386C18.6446 157.549 25.115 240.057 114.757 298.673C204.398 357.289 343.266 369.816 424.926 326.654Z" stroke="black" stroke-opacity="0.7"/>
<path d="M431.709 331.423C520.218 284.641 336.638 288.413 243.379 227.432C150.121 166.451 182.499 63.8084 93.9904 110.591C5.48143 157.374 9.33166 244.734 102.59 305.715C195.849 366.696 343.2 378.206 431.709 331.423Z" stroke="black" stroke-opacity="0.7"/>
<path d="M438.493 336.193C533.85 285.79 344.574 288.431 247.699 225.085C150.823 161.739 183.034 56.3937 87.676 106.797C-7.68188 157.2 -6.45179 249.412 90.4235 312.758C187.299 376.104 343.135 386.596 438.493 336.193Z" stroke="black" stroke-opacity="0.7"/>
<path d="M445.276 340.963C547.483 286.94 352.51 288.449 252.018 222.738C151.526 157.027 183.568 48.9788 81.3617 103.002C-20.8452 157.025 -22.2352 254.089 78.2568 319.8C178.749 385.511 343.069 394.986 445.276 340.963Z" stroke="black" stroke-opacity="0.7"/>
<path d="M452.059 345.733C561.115 288.09 360.447 288.467 256.338 220.391C152.229 152.315 184.103 41.5641 75.0474 99.2074C-34.0084 156.851 -38.0186 258.766 66.0903 326.842C170.199 394.919 343.003 403.376 452.059 345.733Z" stroke="black" stroke-opacity="0.7"/>
<path d="M458.842 350.503C574.747 289.239 368.383 288.485 260.657 218.044C152.932 147.602 184.638 34.1493 68.7332 95.4126C-47.1715 156.676 -53.8019 263.444 53.9239 333.885C161.65 404.326 342.938 411.766 458.842 350.503Z" stroke="black" stroke-opacity="0.7"/>
<path d="M465.626 355.272C588.379 290.389 376.32 288.503 264.977 215.697C153.635 142.89 185.172 26.7346 62.4189 91.618C-60.3347 156.501 -69.5852 268.121 41.7573 340.927C153.1 413.733 342.872 420.156 465.626 355.272Z" stroke="black" stroke-opacity="0.7"/>
<path d="M472.409 360.042C602.012 291.539 384.256 288.521 269.297 213.349C154.337 138.178 185.707 19.3198 56.1045 87.8234C-73.498 156.327 -85.3687 272.798 29.5907 347.969C144.55 423.141 342.807 428.546 472.409 360.042Z" stroke="black" stroke-opacity="0.7"/>
<path d="M479.192 364.812C615.644 292.688 392.192 288.538 273.616 211.002C155.04 133.466 186.242 11.905 49.7901 84.0287C-86.6613 156.152 -101.152 277.476 17.424 355.012C136 432.548 342.741 436.936 479.192 364.812Z" stroke="black" stroke-opacity="0.7"/>
<path d="M485.976 369.582C629.276 293.838 400.129 288.556 277.936 208.655C155.743 128.754 186.776 4.49021 43.476 80.234C-99.8243 155.978 -116.935 282.153 5.25769 362.054C127.451 441.955 342.675 445.326 485.976 369.582Z" stroke="black" stroke-opacity="0.7"/>
<path d="M492.759 374.352C642.908 294.988 408.065 288.574 282.255 206.308C156.446 124.042 187.311 -2.92447 37.1615 76.4394C-112.988 155.803 -132.719 286.83 -6.90909 369.097C118.901 451.363 342.61 453.715 492.759 374.352Z" stroke="black" stroke-opacity="0.7"/>
<path d="M499.542 379.121C656.54 296.137 416.001 288.592 286.575 203.961C157.148 119.33 187.845 -10.3393 30.8472 72.6447C-126.151 155.629 -148.502 291.508 -19.0757 376.139C110.351 460.77 342.544 462.105 499.542 379.121Z" stroke="black" stroke-opacity="0.7"/>
<path d="M506.325 383.891C670.172 297.287 423.938 288.61 290.894 201.614C157.851 114.618 188.38 -17.7541 24.5328 68.85C-139.314 155.454 -164.286 296.185 -31.2424 383.181C101.801 470.177 342.478 470.495 506.325 383.891Z" stroke="black" stroke-opacity="0.7"/>
<path d="M513.109 388.661C683.805 298.437 431.874 288.628 295.214 199.267C158.554 109.906 188.915 -25.1689 18.2185 65.0553C-152.478 155.28 -180.069 300.862 -43.4089 390.223C93.2512 479.585 342.413 478.885 513.109 388.661Z" stroke="black" stroke-opacity="0.7"/>
<path d="M519.892 393.431C697.437 299.586 439.811 288.646 299.534 196.92C159.257 105.194 189.449 -32.5836 11.9044 61.2607C-165.641 155.105 -195.852 305.54 -55.5753 397.266C84.7017 488.992 342.347 487.275 519.892 393.431Z" stroke="black" stroke-opacity="0.7"/>
<path d="M526.675 398.2C711.069 300.736 447.747 288.664 303.853 194.573C159.96 100.481 189.984 -39.9984 5.59004 57.466C-178.804 154.93 -211.636 310.217 -67.742 404.308C76.1518 498.399 342.282 495.665 526.675 398.2Z" stroke="black" stroke-opacity="0.7"/>
</svg>
