<svg width="18" height="18" viewBox="0 0 18 18" fill="none" xmlns="http://www.w3.org/2000/svg">
<path d="M0.726442 8.76408L0.726694 8.76427C1.45932 9.30891 2.32521 9.74378 3.31689 10.0743C4.29697 10.401 5.31465 10.6369 6.36936 10.7823C7.40649 10.926 8.28525 11 9 11C9.71475 11 10.5935 10.926 11.6306 10.7823C12.6853 10.6369 13.703 10.401 14.6831 10.0743C15.6748 9.74378 16.5407 9.30891 17.2733 8.76426L17.2736 8.76408C17.3526 8.70526 17.4281 8.64469 17.5 8.58237V9C17.5 9.78401 16.883 10.6022 15.1707 11.3686C13.5014 12.1159 11.4501 12.5 9 12.5C6.54994 12.5 4.49865 12.1159 2.82928 11.3686C1.11699 10.6022 0.5 9.78401 0.5 9V8.58237C0.571917 8.64468 0.647429 8.70526 0.726442 8.76408ZM0.726442 13.7641L0.726694 13.7643C1.45932 14.3089 2.32521 14.7438 3.31689 15.0743C4.29698 15.401 5.31468 15.6372 6.36941 15.7833L6.36968 15.7833C7.40675 15.9264 8.2854 16 9 16C9.7146 16 10.5932 15.9264 11.6303 15.7833L11.6306 15.7833C12.6853 15.6372 13.703 15.401 14.6831 15.0743C15.6748 14.7438 16.5407 14.3089 17.2733 13.7643L17.2736 13.7641C17.3526 13.7053 17.4281 13.6447 17.5 13.5824V14C17.5 14.784 16.883 15.6022 15.1707 16.3686C13.5014 17.1159 11.4501 17.5 9 17.5C6.54994 17.5 4.49865 17.1159 2.82928 16.3686C1.11699 15.6022 0.5 14.784 0.5 14V13.5824C0.571917 13.6447 0.647429 13.7053 0.726442 13.7641ZM9 7.5C6.54994 7.5 4.49865 7.11588 2.82928 6.36863C1.11699 5.60218 0.5 4.78401 0.5 4C0.5 3.21599 1.11699 2.39782 2.82928 1.63137C4.49865 0.884125 6.54994 0.5 9 0.5C11.4501 0.5 13.5014 0.884125 15.1707 1.63137C16.883 2.39782 17.5 3.21599 17.5 4C17.5 4.78401 16.883 5.60218 15.1707 6.36863C13.5014 7.11588 11.4501 7.5 9 7.5Z" stroke="#444444"/>
</svg>
