<svg
      width="15"
      height="25"
      viewBox="0 0 15 25"
      fill="none"
      xmlns="http://www.w3.org/2000/svg"
    >
      <path
        d="M0 12.5C0 12.86 0.153374 13.1912 0.444785 13.4505L12.592 24.6256C12.8681 24.8704 13.2055 25 13.6043 25C14.3865 25 15 24.4384 15 23.6895C15 23.3295 14.8466 22.9983 14.6012 22.7535L3.43558 12.5L14.6012 2.24654C14.8466 2.00173 15 1.68491 15 1.31048C15 0.561636 14.3865 0 13.6043 0C13.2055 0 12.8681 0.129608 12.592 0.388824L0.444785 11.5495C0.153374 11.8232 0 12.14 0 12.5Z"
        fill="black"
      />
    </svg>