<svg width="30" height="14" viewBox="0 0 30 14" fill="none" xmlns="http://www.w3.org/2000/svg">
<path d="M15 14C15.432 14 15.8295 13.8569 16.1406 13.5849L29.5507 2.24744C29.8445 1.98978 30 1.67485 30 1.30266C30 0.572597 29.326 0 28.4274 0C27.9954 0 27.5979 0.143149 27.3041 0.372188L15 10.7935L2.69585 0.372188C2.40207 0.143149 2.02189 0 1.57258 0C0.673962 0 -1.90735e-06 0.572597 -1.90735e-06 1.30266C-1.90735e-06 1.67485 0.155529 1.98978 0.466589 2.24744L13.8594 13.5849C14.1878 13.8569 14.568 14 15 14Z" fill="#3C3C43" fill-opacity="0.3"/>
</svg>
