<svg width="1440" height="1024" viewBox="0 0 1440 1024" fill="none" xmlns="http://www.w3.org/2000/svg">
<path d="M1272.27 -226.636C880.758 -298.969 1376.1 71.6882 1280.9 120.761C1162 182.047 626.195 183.637 877.35 312.084C1073.79 412.55 299.806 400.273 425.813 558.195C526.618 684.532 157.347 531.996 -26.0573 574.027" stroke="#928F8F" stroke-opacity="0.3"/>
<path d="M1261.09 -234.004C869.576 -306.337 1364.92 64.3202 1269.71 113.393C1150.82 174.679 615.013 176.269 866.169 304.716C1062.61 405.182 288.625 392.905 414.631 550.827C515.436 677.164 146.165 524.628 -37.239 566.659" stroke="#928F8F" stroke-opacity="0.3"/>
<path d="M1249.91 -241.373C858.394 -313.706 1353.74 56.9517 1258.53 106.025C1139.64 167.31 603.831 168.9 854.987 297.347C1051.43 397.813 277.443 385.537 403.449 543.458C504.254 669.795 134.983 517.26 -48.4209 559.291" stroke="#928F8F" stroke-opacity="0.3"/>
<path d="M1238.72 -248.741C847.212 -321.074 1342.55 49.5837 1247.35 98.6566C1128.45 159.942 592.649 161.532 843.805 289.979C1040.25 390.445 266.261 378.169 392.267 536.09C493.072 662.427 123.802 509.892 -59.6028 551.923" stroke="#928F8F" stroke-opacity="0.3"/>
<path d="M1227.54 -256.109C836.03 -328.442 1331.37 42.2158 1236.17 91.2886C1117.27 152.574 581.468 154.164 832.623 282.611C1029.07 383.077 255.079 370.801 381.085 528.722C481.89 655.059 112.62 502.524 -70.7846 544.555" stroke="#928F8F" stroke-opacity="0.3"/>
<path d="M1216.36 -263.477C824.849 -335.81 1320.19 34.8477 1224.99 83.9205C1106.09 145.206 570.286 146.796 821.442 275.243C1017.89 375.709 243.898 363.433 369.904 521.354C470.709 647.691 101.438 495.156 -81.966 537.187" stroke="#928F8F" stroke-opacity="0.3"/>
<path d="M1205.18 -270.845C813.667 -343.178 1309.01 27.4798 1213.8 76.5527C1094.91 137.838 559.104 139.428 810.259 267.875C1006.7 368.341 232.715 356.065 358.722 513.986C459.527 640.323 90.2561 487.788 -93.1483 529.819" stroke="#928F8F" stroke-opacity="0.3"/>
<path d="M1194 -278.213C802.485 -350.546 1297.83 20.1117 1202.62 69.1845C1083.73 130.47 547.923 132.06 799.078 260.507C995.522 360.973 221.534 348.697 347.54 506.618C448.345 632.955 79.0746 480.42 -104.33 522.451" stroke="#928F8F" stroke-opacity="0.3"/>
<path d="M1182.82 -285.581C791.304 -357.914 1286.64 12.7436 1191.44 61.8164C1072.55 123.102 536.741 124.692 787.896 253.139C984.341 353.605 210.352 341.328 336.359 499.25C437.164 625.587 67.8929 473.052 -115.511 515.082" stroke="#928F8F" stroke-opacity="0.3"/>
<path d="M1171.63 -292.949C780.122 -365.282 1275.46 5.37567 1180.26 54.4485C1061.36 115.734 525.559 117.324 776.714 245.771C973.159 346.237 199.17 333.961 325.177 491.882C425.982 618.219 56.7109 465.684 -126.693 507.715" stroke="#928F8F" stroke-opacity="0.3"/>
<path d="M1160.45 -300.317C768.94 -372.65 1264.28 -1.99243 1169.08 47.0804C1050.18 108.366 514.377 109.956 765.533 238.403C961.977 338.869 187.989 326.592 313.995 484.514C414.8 610.851 45.5295 458.316 -137.875 500.346" stroke="#928F8F" stroke-opacity="0.3"/>
<path d="M1149.27 -307.685C757.758 -380.018 1253.1 -9.36035 1157.9 39.7125C1039 100.998 503.195 102.588 754.351 231.035C950.795 331.501 176.807 319.225 302.813 477.146C403.618 603.483 34.3474 450.948 -149.057 492.979" stroke="#928F8F" stroke-opacity="0.3"/>
<path d="M1138.09 -315.053C746.576 -387.386 1241.92 -16.7284 1146.71 32.3445C1027.82 93.63 492.014 95.2202 743.169 223.667C939.613 324.133 165.625 311.856 291.631 469.778C392.436 596.115 23.1658 443.58 -160.239 485.611" stroke="#928F8F" stroke-opacity="0.3"/>
<path d="M1126.91 -322.421C735.395 -394.754 1230.74 -24.0967 1135.53 24.9762C1016.64 86.2617 480.832 87.8519 731.987 216.299C928.432 316.765 154.443 304.488 280.45 462.41C381.255 588.747 11.984 436.211 -171.42 478.242" stroke="#928F8F" stroke-opacity="0.3"/>
<path d="M1115.72 -329.789C724.213 -402.122 1219.55 -31.4647 1124.35 17.6082C1005.45 78.8937 469.65 80.4839 720.806 208.931C917.25 309.397 143.262 297.12 269.268 455.042C370.073 581.379 0.802256 428.843 -182.602 470.874" stroke="#928F8F" stroke-opacity="0.3"/>
<path d="M1104.54 -337.157C713.031 -409.49 1208.37 -38.8326 1113.17 10.2402C994.273 71.5257 458.469 73.1159 709.624 201.563C906.068 302.029 132.08 289.752 258.086 447.674C358.891 574.011 -10.3794 421.475 -193.784 463.506" stroke="#928F8F" stroke-opacity="0.3"/>
<path d="M1093.36 -344.525C701.85 -416.858 1197.19 -46.2007 1101.99 2.87217C983.091 64.1577 447.287 65.7479 698.442 194.195C894.887 294.661 120.898 282.384 246.905 440.306C347.71 566.643 -21.5611 414.107 -204.965 456.138" stroke="#928F8F" stroke-opacity="0.3"/>
<path d="M1082.18 -351.893C690.668 -424.226 1186.01 -53.5687 1090.81 -4.49581C971.909 56.7897 436.105 58.3799 687.26 186.827C883.705 287.293 109.716 275.016 235.723 432.938C336.528 559.275 -32.7428 406.739 -216.147 448.77" stroke="#928F8F" stroke-opacity="0.3"/>
<path d="M1071 -359.261C679.486 -431.595 1174.83 -60.937 1079.62 -11.8641C960.728 49.4214 424.923 51.0116 676.079 179.458C872.523 279.925 98.5347 267.648 224.541 425.569C325.346 551.907 -43.9246 399.371 -227.329 441.402" stroke="#928F8F" stroke-opacity="0.3"/>
<path d="M1059.82 -366.629C668.304 -438.963 1163.65 -68.305 1068.44 -19.2321C949.546 42.0534 413.742 43.6436 664.897 172.09C861.341 272.557 87.353 260.28 213.359 418.201C314.164 544.539 -55.1063 392.003 -238.511 434.034" stroke="#928F8F" stroke-opacity="0.3"/>
<path d="M1156.48 1211C1396.77 1155.76 978.029 873.447 1021.2 852.857C1075.12 827.143 1323.04 980.999 1238.64 787.971C1172.63 636.991 1523.37 974.466 1491.72 787.971C1466.4 638.774 1354.58 511.345 1670 594.348" stroke="#605D5D" stroke-opacity="0.3"/>
<path d="M944.427 1050.89C1184.72 995.653 765.977 713.336 809.152 692.746C863.072 667.033 1110.99 820.889 1026.59 627.86C960.578 476.88 1311.32 814.356 1279.67 627.86C1254.35 478.664 1142.52 351.234 1457.95 434.237" stroke="#605D5D" stroke-opacity="0.3"/>
<path d="M1146.38 1203.38C1386.68 1148.14 967.931 865.823 1011.11 845.233C1065.03 819.519 1312.94 973.375 1228.54 780.346C1162.53 629.366 1513.27 966.842 1481.62 780.346C1456.3 631.15 1344.48 503.72 1659.9 586.724" stroke="#605D5D" stroke-opacity="0.3"/>
<path d="M1136.28 1195.75C1376.58 1140.52 957.833 858.198 1001.01 837.609C1054.93 811.895 1302.84 965.751 1218.45 772.722C1152.43 621.742 1503.17 959.218 1471.52 772.722C1446.21 623.526 1334.38 496.096 1649.8 579.099" stroke="#605D5D" stroke-opacity="0.3"/>
<path d="M1126.19 1188.13C1366.48 1132.89 947.736 850.574 990.911 829.984C1044.83 804.27 1292.74 958.126 1208.35 765.097C1142.34 614.117 1493.08 951.593 1461.43 765.098C1436.11 615.901 1324.28 488.472 1639.71 571.475" stroke="#605D5D" stroke-opacity="0.3"/>
<path d="M1116.09 1180.5C1356.38 1125.27 937.638 842.95 980.813 822.36C1034.73 796.646 1282.65 950.502 1198.25 757.473C1132.24 606.493 1482.98 943.969 1451.33 757.473C1426.01 608.277 1314.19 480.847 1629.61 563.85" stroke="#605D5D" stroke-opacity="0.3"/>
<path d="M1105.99 1172.88C1346.29 1117.64 927.54 835.325 970.715 814.736C1024.64 789.022 1272.55 942.878 1188.15 749.849C1122.14 598.869 1472.88 936.345 1441.23 749.849C1415.91 600.653 1304.09 473.223 1619.51 556.226" stroke="#605D5D" stroke-opacity="0.3"/>
<path d="M1095.89 1165.25C1336.19 1110.02 917.442 827.701 960.617 807.111C1014.54 781.397 1262.45 935.253 1178.05 742.225C1112.04 591.245 1462.78 928.72 1431.13 742.225C1405.81 593.028 1293.99 465.599 1609.41 548.602" stroke="#605D5D" stroke-opacity="0.3"/>
<path d="M1085.79 1157.63C1326.09 1102.39 907.345 820.077 950.52 799.487C1004.44 773.773 1252.35 927.629 1167.96 734.6C1101.95 583.62 1452.68 921.096 1421.04 734.6C1395.72 585.404 1283.89 457.974 1599.32 540.978" stroke="#605D5D" stroke-opacity="0.3"/>
<path d="M1075.7 1150.01C1315.99 1094.77 897.247 812.452 940.422 791.863C994.342 766.149 1242.26 920.005 1157.86 726.976C1091.85 575.996 1442.59 913.472 1410.94 726.976C1385.62 577.78 1273.79 450.35 1589.22 533.353" stroke="#605D5D" stroke-opacity="0.3"/>
<path d="M1065.6 1142.38C1305.89 1087.15 887.149 804.828 930.324 784.238C984.244 758.524 1232.16 912.38 1147.76 719.352C1081.75 568.372 1432.49 905.847 1400.84 719.352C1375.52 570.155 1263.7 442.726 1579.12 525.729" stroke="#605D5D" stroke-opacity="0.3"/>
<path d="M1055.5 1134.76C1295.8 1079.52 877.052 797.204 920.227 776.614C974.147 750.9 1222.06 904.756 1137.66 711.727C1071.65 560.747 1422.39 898.223 1390.74 711.727C1365.42 562.531 1253.6 435.101 1569.02 518.105" stroke="#605D5D" stroke-opacity="0.3"/>
<path d="M1045.4 1127.13C1285.7 1071.9 866.954 789.579 910.129 768.99C964.049 743.276 1211.96 897.132 1127.57 704.103C1061.55 553.123 1412.29 890.599 1380.65 704.103C1355.33 554.907 1243.5 427.477 1558.93 510.48" stroke="#605D5D" stroke-opacity="0.3"/>
<path d="M1035.31 1119.51C1275.6 1064.27 856.856 781.955 900.031 761.365C953.951 735.651 1201.86 889.508 1117.47 696.479C1051.46 545.499 1402.2 882.974 1370.55 696.479C1345.23 547.282 1233.4 419.853 1548.83 502.856" stroke="#605D5D" stroke-opacity="0.3"/>
<path d="M1025.21 1111.88C1265.5 1056.65 846.759 774.331 889.934 753.741C943.854 728.027 1191.77 881.883 1107.37 688.854C1041.36 537.874 1392.1 875.35 1360.45 688.855C1335.13 539.658 1223.31 412.229 1538.73 495.232" stroke="#605D5D" stroke-opacity="0.3"/>
<path d="M1015.11 1104.26C1255.41 1049.02 836.661 766.706 879.836 746.117C933.756 720.403 1181.67 874.259 1097.27 681.23C1031.26 530.25 1382 867.726 1350.35 681.23C1325.03 532.034 1213.21 404.604 1528.63 487.607" stroke="#605D5D" stroke-opacity="0.3"/>
<path d="M1005.01 1096.64C1245.31 1041.4 826.563 759.082 869.738 738.492C923.658 712.778 1171.57 866.634 1087.18 673.606C1021.16 522.626 1371.9 860.101 1340.25 673.606C1314.94 524.409 1203.11 396.98 1518.53 479.983" stroke="#605D5D" stroke-opacity="0.3"/>
<path d="M994.915 1089.01C1235.21 1033.77 816.465 751.458 859.64 730.868C913.56 705.154 1161.47 859.01 1077.08 665.981C1011.07 515.001 1361.81 852.477 1330.16 665.982C1304.84 516.785 1193.01 389.356 1508.44 472.359" stroke="#605D5D" stroke-opacity="0.3"/>
<path d="M984.817 1081.39C1225.11 1026.15 806.368 743.834 849.543 723.244C903.462 697.53 1151.38 851.386 1066.98 658.357C1000.97 507.377 1351.71 844.853 1320.06 658.357C1294.74 509.161 1182.91 381.731 1498.34 464.734" stroke="#605D5D" stroke-opacity="0.3"/>
<path d="M974.72 1073.76C1215.02 1018.53 796.27 736.209 839.445 715.619C893.365 689.906 1141.28 843.762 1056.88 650.733C990.87 499.753 1341.61 837.229 1309.96 650.733C1284.64 501.537 1172.82 374.107 1488.24 457.11" stroke="#605D5D" stroke-opacity="0.3"/>
<path d="M964.622 1066.14C1204.92 1010.9 786.172 728.585 829.347 707.995C883.267 682.281 1131.18 836.137 1046.78 643.108C980.773 492.128 1331.51 829.604 1299.86 643.109C1274.54 493.912 1162.72 366.482 1478.14 449.486" stroke="#605D5D" stroke-opacity="0.3"/>
<path d="M954.524 1058.51C1194.82 1003.28 776.075 720.96 819.25 700.371C873.17 674.657 1121.08 828.513 1036.69 635.484C970.675 484.504 1321.41 821.98 1289.77 635.484C1264.45 486.288 1152.62 358.858 1468.05 441.861" stroke="#605D5D" stroke-opacity="0.3"/>
<path d="M384.848 855.324C431.425 880.802 503.297 890.65 555.638 897.528C556.818 897.683 557.989 897.837 559.148 897.989C570.862 899.526 581.506 900.923 590.576 902.33C600.555 903.878 608.562 905.429 613.963 907.173C619.359 908.916 621.998 910.796 621.622 913.01C621.237 915.277 617.695 918.008 610.02 921.402C579.473 934.909 533.067 936.944 482.617 929.236C432.175 921.529 377.788 904.092 331.44 878.739C285.093 853.386 255.603 824.939 245.367 799.454C235.13 773.965 244.164 751.485 274.71 737.978C282.385 734.584 288.288 733.145 292.921 733.203C297.45 733.26 300.988 734.759 303.958 737.593C306.932 740.43 309.241 744.522 311.338 749.579C313.25 754.193 314.975 759.583 316.872 765.513C317.052 766.076 317.234 766.643 317.417 767.215C325.877 793.597 338.272 829.846 384.848 855.324Z" stroke="black" stroke-opacity="0.7"/>
<path d="M502.533 801.829C550.438 828.035 608.195 848.578 663.966 866.363C682.41 872.244 700.63 877.822 718.203 883.202C753.803 894.1 786.754 904.188 813.569 914.351C853.624 929.532 879.734 944.793 880.547 963.039C881.36 981.304 856.836 1002.69 794.827 1030.11C546.872 1139.75 191.016 1143.75 -0.0309288 1039.25C-191.077 934.739 -145.275 761.132 102.68 651.491C133.675 637.785 160.168 628.23 183.171 622.199C206.174 616.168 225.653 613.67 242.63 614.055C276.515 614.824 300.746 627.093 323.351 646.186C334.645 655.726 345.502 666.943 356.938 679.231C359.901 682.414 362.902 685.67 365.96 688.986C374.7 698.466 383.899 708.443 393.962 718.661C421.131 746.249 454.626 775.623 502.533 801.829Z" stroke="black" stroke-opacity="0.7"/>
<path d="M619.259 926.818C689.659 895.688 488.437 905.924 390.91 852.574C293.382 799.224 336.479 702.49 266.079 733.62C195.679 764.749 217.671 833.234 315.199 886.584C412.726 939.934 548.859 957.948 619.259 926.818Z" stroke="black" stroke-opacity="0.7"/>
<path d="M628.059 931.995C707.344 896.936 498.734 905.944 396.514 850.027C294.294 794.11 337.173 694.442 257.887 729.501C178.602 764.56 197.194 838.31 299.414 894.227C401.634 950.144 548.773 967.053 628.059 931.995Z" stroke="black" stroke-opacity="0.7"/>
<path d="M636.859 937.172C725.03 898.184 509.03 905.963 402.118 847.48C295.205 788.996 337.866 686.395 249.696 725.383C161.525 764.37 176.718 843.387 283.63 901.871C390.542 960.354 548.688 976.159 636.859 937.172Z" stroke="black" stroke-opacity="0.7"/>
<path d="M645.66 942.349C742.716 899.432 519.326 905.983 407.722 844.932C296.117 783.882 338.56 678.348 241.504 721.264C144.447 764.181 156.241 848.463 267.846 909.514C379.45 970.565 548.603 985.265 645.66 942.349Z" stroke="black" stroke-opacity="0.7"/>
<path d="M654.46 947.525C760.402 900.68 529.623 906.002 413.326 842.385C297.029 778.767 339.254 670.3 233.312 717.146C127.37 763.991 135.764 853.539 252.061 917.157C368.358 980.774 548.518 994.371 654.46 947.525Z" stroke="black" stroke-opacity="0.7"/>
<path d="M663.26 952.702C778.088 901.927 539.919 906.022 418.93 839.837C297.941 773.653 339.947 662.253 225.12 713.027C110.293 763.802 115.288 858.616 236.277 924.8C357.266 990.984 548.433 1003.48 663.26 952.702Z" stroke="black" stroke-opacity="0.7"/>
<path d="M672.061 957.879C795.773 903.175 550.215 906.041 424.534 837.29C298.852 768.539 340.641 654.206 216.928 708.909C93.2152 763.613 94.8111 863.693 220.492 932.444C346.174 1001.19 548.348 1012.58 672.061 957.879Z" stroke="black" stroke-opacity="0.7"/>
<path d="M680.861 963.055C813.459 904.423 560.511 906.061 430.138 834.743C299.764 763.425 341.334 646.158 208.736 704.791C76.1377 763.423 74.3343 868.769 204.708 940.087C335.082 1011.4 548.263 1021.69 680.861 963.055Z" stroke="black" stroke-opacity="0.7"/>
<path d="M689.661 968.232C831.145 905.671 570.808 906.08 435.742 832.195C300.676 758.311 342.028 638.11 200.544 700.672C59.0604 763.234 53.8578 873.845 188.924 947.73C323.99 1021.61 548.178 1030.79 689.661 968.232Z" stroke="black" stroke-opacity="0.7"/>
<path d="M698.462 973.409C848.831 906.918 581.104 906.1 441.346 829.648C301.588 753.197 342.722 630.063 192.352 696.554C41.9832 763.044 33.3813 878.922 173.14 955.373C312.898 1031.82 548.093 1039.9 698.462 973.409Z" stroke="black" stroke-opacity="0.7"/>
<path d="M707.262 978.586C866.517 908.166 591.4 906.119 446.95 827.101C302.499 748.082 343.415 622.016 184.161 692.435C24.9059 762.855 12.9047 883.998 157.355 963.017C301.806 1042.03 548.007 1049.01 707.262 978.586Z" stroke="black" stroke-opacity="0.7"/>
<path d="M716.062 983.762C884.202 909.414 601.697 906.138 452.554 824.553C303.411 742.968 344.109 613.968 175.969 688.317C7.8285 762.665 -7.57194 889.075 141.571 970.66C290.714 1052.24 547.922 1058.11 716.062 983.762Z" stroke="black" stroke-opacity="0.7"/>
<path d="M724.862 988.939C901.888 910.662 611.993 906.158 458.158 822.006C304.323 737.854 344.802 605.921 167.777 684.198C-9.24901 762.476 -28.0487 894.151 125.786 978.303C279.621 1062.45 547.837 1067.22 724.862 988.939Z" stroke="black" stroke-opacity="0.7"/>
<path d="M733.663 994.116C919.574 911.91 622.289 906.177 463.762 819.459C305.235 732.74 345.496 597.873 159.585 680.08C-26.3261 762.287 -48.525 899.227 110.002 985.946C268.53 1072.66 547.752 1076.32 733.663 994.116Z" stroke="black" stroke-opacity="0.7"/>
<path d="M742.463 999.293C937.26 913.157 632.586 906.197 469.366 816.911C306.146 727.626 346.189 589.826 151.393 675.961C-43.4036 762.097 -69.0018 904.304 94.2178 993.589C257.437 1082.87 547.667 1085.43 742.463 999.293Z" stroke="black" stroke-opacity="0.7"/>
<path d="M751.264 1004.47C954.946 914.405 642.882 906.216 474.97 814.364C307.058 722.512 346.883 581.778 143.201 671.843C-60.481 761.908 -89.4784 909.38 78.4335 1001.23C246.345 1093.08 547.582 1094.53 751.264 1004.47Z" stroke="black" stroke-opacity="0.7"/>
<path d="M760.064 1009.65C972.631 915.653 653.178 906.236 480.574 811.816C307.97 717.397 347.576 573.731 135.009 667.725C-77.5585 761.718 -109.955 914.457 62.6489 1008.88C235.253 1103.29 547.496 1103.64 760.064 1009.65Z" stroke="black" stroke-opacity="0.7"/>
<path d="M768.864 1014.82C990.317 916.9 663.474 906.255 486.178 809.269C308.882 712.283 348.27 565.684 126.817 663.606C-94.6358 761.529 -130.432 919.533 46.8646 1016.52C224.161 1113.5 547.411 1112.75 768.864 1014.82Z" stroke="black" stroke-opacity="0.7"/>
<path d="M777.665 1020C1008 918.148 673.771 906.274 491.782 806.722C309.793 707.169 348.964 557.636 118.625 659.488C-111.713 761.339 -150.908 924.61 31.0805 1024.16C213.069 1123.71 547.326 1121.85 777.665 1020Z" stroke="black" stroke-opacity="0.7"/>
<path d="M786.465 1025.18C1025.69 919.396 684.067 906.294 497.386 804.174C310.705 702.055 349.657 549.589 110.434 655.369C-128.79 761.15 -171.385 929.686 15.2961 1031.81C201.977 1133.92 547.241 1130.96 786.465 1025.18Z" stroke="black" stroke-opacity="0.7"/>
<path d="M271.033 193.676C273.904 148.239 298.042 67.6003 371.622 108.543C445.202 149.485 515.915 54.6435 542.075 2.1049" stroke="black"/>
<path d="M242.665 93.5685C245.536 48.1315 269.673 -32.5069 343.253 8.43558C416.833 49.3781 487.547 -45.4636 513.706 -98.0023" stroke="black"/>
<path d="M268.454 184.575C271.325 139.138 295.463 58.4997 369.043 99.4422C442.623 140.385 513.336 45.543 539.496 -6.99569" stroke="black"/>
<path d="M265.875 175.474C268.746 130.037 292.884 49.399 366.464 90.3415C440.044 131.284 510.757 36.4423 536.917 -16.0964" stroke="black"/>
<path d="M263.296 166.374C266.168 120.937 290.305 40.2984 363.885 81.2408C437.465 122.183 508.178 27.3416 534.338 -25.197" stroke="black"/>
<path d="M260.717 157.273C263.589 111.836 287.726 31.1978 361.306 72.1402C434.886 113.083 505.599 18.241 531.759 -34.2976" stroke="black"/>
<path d="M258.138 148.172C261.01 102.735 285.147 22.0971 358.727 63.0395C432.307 103.982 503.02 9.14031 529.18 -43.3983" stroke="black"/>
<path d="M255.559 139.072C258.431 93.6347 282.568 12.9964 356.148 53.9388C429.728 94.8813 500.441 0.0396016 526.601 -52.4991" stroke="black"/>
<path d="M252.98 129.971C255.852 84.5341 279.989 3.89577 353.569 44.8382C427.149 85.7807 497.862 -9.06098 524.022 -61.5996" stroke="black"/>
<path d="M250.401 120.87C253.273 75.4334 277.41 -5.205 350.99 35.7375C424.57 76.6799 495.283 -18.1618 521.443 -70.7004" stroke="black"/>
<path d="M247.823 111.77C250.694 66.3328 274.831 -14.3055 348.411 26.6369C421.991 67.5794 492.705 -27.2623 518.864 -79.8009" stroke="black"/>
<path d="M245.244 102.669C248.115 57.2321 272.252 -23.4063 345.832 17.5362C419.412 58.4786 490.126 -36.363 516.285 -88.9017" stroke="black"/>
<path d="M0.570496 381.287C3.44167 335.85 27.579 255.211 101.159 296.154C174.739 337.096 245.452 242.255 271.612 189.716" stroke="black"/>
<path d="M-27.7982 281.179C-24.927 235.742 -0.789645 155.104 72.7903 196.047C146.37 236.989 217.084 142.147 243.243 89.6087" stroke="black"/>
<path d="M-2.00854 372.186C0.862639 326.749 25 246.111 98.5799 287.053C172.16 327.996 242.873 233.154 269.033 180.615" stroke="black"/>
<path d="M-4.58752 363.085C-1.71634 317.648 22.421 237.01 96.0009 277.952C169.581 318.895 240.294 224.053 266.454 171.515" stroke="black"/>
<path d="M-7.16644 353.985C-4.29526 308.548 19.8421 227.909 93.422 268.852C167.002 309.794 237.716 214.953 263.875 162.414" stroke="black"/>
<path d="M-9.74542 344.884C-6.87424 299.447 17.2631 218.809 90.843 259.751C164.423 300.694 235.137 205.852 261.296 153.313" stroke="black"/>
<path d="M-12.3244 335.783C-9.45319 290.346 14.6841 209.708 88.2641 250.65C161.844 291.593 232.558 196.751 258.717 144.213" stroke="black"/>
<path d="M-14.9033 326.683C-12.0322 281.246 12.1052 200.607 85.6851 241.55C159.265 282.492 229.979 187.651 256.138 135.112" stroke="black"/>
<path d="M-17.4824 317.582C-14.6112 272.145 9.52615 191.507 83.1061 232.449C156.686 273.392 227.4 178.55 253.559 126.011" stroke="black"/>
<path d="M-20.0613 308.481C-17.1901 263.044 6.94724 182.406 80.5272 223.348C154.107 264.291 224.821 169.449 250.98 116.911" stroke="black"/>
<path d="M-22.6402 299.381C-19.769 253.944 4.36829 173.305 77.9482 214.248C151.528 255.19 222.242 160.349 248.401 107.81" stroke="black"/>
<path d="M-25.2191 290.28C-22.348 244.843 1.78937 164.205 75.3693 205.147C148.949 246.09 219.663 151.248 245.822 98.7092" stroke="black"/>
</svg>
