<svg width="16" height="19" viewBox="0 0 16 19" fill="none" xmlns="http://www.w3.org/2000/svg">
<path d="M7.99998 18.0999C7.01227 18.0914 6.03623 17.8854 5.12942 17.4938C4.2226 17.1022 3.40336 16.533 2.71998 15.8199C1.33252 14.3643 0.566868 12.4254 0.585539 10.4146C0.604209 8.40377 1.40573 6.47938 2.81998 5.04985L7.45998 0.399851C7.5504 0.30251 7.66043 0.225443 7.78282 0.173732C7.9052 0.122021 8.03716 0.0968403 8.16998 0.0998507C8.303 0.1017 8.43431 0.130071 8.55622 0.183301C8.67813 0.236531 8.7882 0.313551 8.87998 0.409851L13.44 5.12985C14.8288 6.5841 15.5962 8.52231 15.5794 10.5331C15.5626 12.5439 14.7629 14.469 13.35 15.8999C12.6541 16.6103 11.8209 17.1717 10.9012 17.5499C9.98143 17.9281 8.99434 18.1152 7.99998 18.0999ZM8.12998 2.52985L4.23998 6.44985C3.18961 7.51204 2.59471 8.94187 2.58164 10.4356C2.56857 11.9294 3.13836 13.3694 4.16998 14.4499C4.66814 14.9637 5.26297 15.374 5.92026 15.6572C6.57756 15.9404 7.28434 16.0908 7.99998 16.0999C8.72467 16.1059 9.4432 15.9665 10.1131 15.6899C10.783 15.4134 11.3906 15.0053 11.9 14.4899C12.9537 13.4288 13.55 11.9974 13.5612 10.5021C13.5724 9.00679 12.9977 7.56655 11.96 6.48985L8.12998 2.52985Z" fill="white"/>
</svg>
