<svg width="18" height="16" viewBox="0 0 18 16" fill="#F5F5F5" xmlns="http://www.w3.org/2000/svg">
<path d="M0 5.07563C0 8.65546 3.23565 12.1765 8.34743 15.2017C8.53776 15.3109 8.80967 15.4286 9 15.4286C9.19033 15.4286 9.46224 15.3109 9.66163 15.2017C14.7644 12.1765 18 8.65546 18 5.07563C18 2.10084 15.7976 0 12.861 0C11.1843 0 9.82477 0.739496 9 1.87395C8.19335 0.747899 6.81571 0 5.13897 0C2.20242 0 0 2.10084 0 5.07563ZM1.45921 5.07563C1.45921 2.84034 3.01813 1.35294 5.12085 1.35294C6.82477 1.35294 7.80363 2.33613 8.38369 3.17647C8.6284 3.5126 8.78248 3.60504 9 3.60504C9.21752 3.60504 9.35347 3.5042 9.61631 3.17647C10.2417 2.35294 11.1843 1.35294 12.8792 1.35294C14.9819 1.35294 16.5408 2.84034 16.5408 5.07563C16.5408 8.20168 12.9789 11.5714 9.19033 13.9076C9.0997 13.9664 9.03625 14.0084 9 14.0084C8.96375 14.0084 8.9003 13.9664 8.81873 13.9076C5.02115 11.5714 1.45921 8.20168 1.45921 5.07563Z" fill="#444444"/>
</svg>
