<svg width="18" height="16" viewBox="0 0 18 16" fill="none" xmlns="http://www.w3.org/2000/svg">
<path d="M0 5.07563C0 8.65546 3.23565 12.1765 8.34743 15.2017C8.53776 15.3109 8.80967 15.4286 9 15.4286C9.19033 15.4286 9.46224 15.3109 9.66163 15.2017C14.7644 12.1765 18 8.65546 18 5.07563C18 2.10084 15.7976 0 12.861 0C11.1843 0 9.82477 0.739496 9 1.87395C8.19335 0.747899 6.81571 0 5.13897 0C2.20242 0 0 2.10084 0 5.07563ZM8.81873 13.5C8.81873 11.2647 6.89728 14.0084 9 14.0084C10.7039 14.0084 7.80363 2.33613 8.38369 3.17647C7.5 2.5 8.78248 14.0084 9 14.0084C9.21752 14.0084 27 3 9.61631 3.17647C10.5 3.5 10.3051 4.5 12 4.5C14.1027 4.5 12.861 6.26471 12.861 8.5C12.861 11.6261 12.6073 11.1639 8.81873 13.5C8.7281 13.5588 9.03625 14.0084 9 14.0084C8.96375 14.0084 8.9003 13.9664 8.81873 13.9076C5.02115 11.5714 8.81873 16.6261 8.81873 13.5Z" fill="#444444"/>
</svg>
