<svg width="12" height="12" viewBox="0 0 12 12" fill="none" xmlns="http://www.w3.org/2000/svg">
<path d="M7.48003 6.24479L11.2425 2.49104C11.4073 2.32628 11.4999 2.10281 11.4999 1.86979C11.4999 1.63678 11.4073 1.41331 11.2425 1.24854C11.0778 1.08378 10.8543 0.991211 10.6213 0.991211C10.3883 0.991211 10.1648 1.08378 10 1.24854L6.24628 5.01104L2.49253 1.24854C2.32777 1.08378 2.1043 0.991211 1.87128 0.991211C1.63827 0.991211 1.4148 1.08378 1.25003 1.24854C1.08527 1.41331 0.992704 1.63678 0.992704 1.86979C0.992704 2.10281 1.08527 2.32628 1.25003 2.49104L5.01253 6.24479L1.25003 9.99854C1.16802 10.0799 1.10293 10.1767 1.0585 10.2833C1.01408 10.3899 0.991211 10.5043 0.991211 10.6198C0.991211 10.7353 1.01408 10.8497 1.0585 10.9563C1.10293 11.0629 1.16802 11.1597 1.25003 11.241C1.33138 11.3231 1.42815 11.3881 1.53478 11.4326C1.64141 11.477 1.75577 11.4999 1.87128 11.4999C1.98679 11.4999 2.10116 11.477 2.20779 11.4326C2.31442 11.3881 2.41119 11.3231 2.49253 11.241L6.24628 7.47854L10 11.241C10.0814 11.3231 10.1782 11.3881 10.2848 11.4326C10.3914 11.477 10.5058 11.4999 10.6213 11.4999C10.7368 11.4999 10.8512 11.477 10.9578 11.4326C11.0644 11.3881 11.1612 11.3231 11.2425 11.241C11.3245 11.1597 11.3896 11.0629 11.4341 10.9563C11.4785 10.8497 11.5014 10.7353 11.5014 10.6198C11.5014 10.5043 11.4785 10.3899 11.4341 10.2833C11.3896 10.1767 11.3245 10.0799 11.2425 9.99854L7.48003 6.24479Z" fill="#930707" fill-opacity="0.3"/>
</svg>
