<svg width="19" height="18" viewBox="0 0 19 18" fill="none" xmlns="http://www.w3.org/2000/svg">
<path d="M3.84457 17.0707L3.8446 17.0706L3.83848 17.066C3.77028 17.0144 3.7354 16.9578 3.72105 16.8708C3.70399 16.7675 3.71406 16.5983 3.80245 16.3402L3.80337 16.3375L5.53823 11.1744L5.65576 10.8246L5.35619 10.6092L0.923569 7.4217L0.923575 7.42169L0.921031 7.41988C0.697009 7.2609 0.584074 7.1293 0.534404 7.03406C0.494307 6.95717 0.490894 6.8994 0.515697 6.82648L0.516643 6.82364C0.539782 6.75423 0.578313 6.70556 0.659939 6.6641C0.756363 6.61511 0.924774 6.57258 1.19792 6.57614L1.20136 6.57616L6.63837 6.60937L7.00624 6.61161L7.11786 6.26107L8.76889 1.07564C8.76902 1.07525 8.76915 1.07485 8.76927 1.07446C8.85616 0.806949 8.949 0.658888 9.02468 0.5827C9.0865 0.520451 9.14062 0.5 9.21467 0.5C9.29551 0.5 9.35163 0.522416 9.41311 0.5839C9.48882 0.659601 9.58144 0.806857 9.66836 1.07446C9.66849 1.07485 9.66861 1.07525 9.66874 1.07564L11.3198 6.26107L11.4314 6.61161L11.7993 6.60937L17.2363 6.57617L17.2397 6.57613C17.5129 6.57258 17.6813 6.61511 17.7777 6.6641C17.8582 6.70501 17.8968 6.75293 17.9201 6.82088C17.9439 6.89737 17.9389 6.95886 17.8991 7.03594C17.8501 7.131 17.739 7.26203 17.5166 7.41988L17.5141 7.4217L13.0814 10.6092L12.7819 10.8246L12.8994 11.1744L14.6343 16.3375L14.6352 16.3402C14.7236 16.5983 14.7336 16.7675 14.7166 16.8708C14.7022 16.9578 14.6674 17.0144 14.5991 17.066L14.5977 17.0671C14.5384 17.1123 14.4867 17.1261 14.4034 17.112C14.2975 17.094 14.1362 17.0266 13.9089 16.8618C13.9085 16.8615 13.9082 16.8613 13.9078 16.861L9.51051 13.6335L9.21439 13.4162L8.91846 13.6338L4.52985 16.861C4.52944 16.8613 4.52903 16.8616 4.52862 16.8619C4.30272 17.0257 4.13924 17.0937 4.03151 17.1119C3.94513 17.1265 3.89628 17.1111 3.84457 17.0707ZM1.20441 6.07617C0.565251 6.06787 0.175114 6.26709 0.0423017 6.66553L1.20441 6.07617Z" stroke="#444444"/>
</svg>
