<svg width="32" height="32" viewBox="0 0 32 32" fill="none" xmlns="http://www.w3.org/2000/svg">
<rect width="16.9169" height="17.471" rx="1" transform="matrix(0.994225 0.10732 -0.138324 0.990387 6.41663 0)" fill="#444444"/>
<rect x="0.42795" y="0.548853" width="13.7573" height="14.0886" rx="0.5" transform="matrix(0.994225 0.10732 -0.138324 0.990387 7.41518 1.17621)" stroke="white"/>
<g filter="url(#filter0_d_209_910)">
<rect width="13.7351" height="14.6361" rx="1" transform="matrix(0.994225 0.10732 -0.138324 0.990387 10.3442 4.03052)" fill="#F3F3F3"/>
</g>
<line y1="-1" x2="4.13929" y2="-1" transform="matrix(0.994312 0.106511 -0.137274 0.990533 18.5304 8.05688)" stroke="#444444" stroke-width="2"/>
<line y1="-1" x2="4.13929" y2="-1" transform="matrix(0.994312 0.106511 -0.137274 0.990533 18.131 11.3889)" stroke="#444444" stroke-width="2"/>
<line y1="-1" x2="11.0529" y2="-1" transform="matrix(0.99471 0.102722 -0.132441 0.991191 10.7161 13.1401)" stroke="#444444" stroke-width="2"/>
<line y1="-1" x2="11.0515" y2="-1" transform="matrix(0.994312 0.106511 -0.137362 0.990521 10.3259 16.4024)" stroke="#444444" stroke-width="2"/>
<path d="M13.2904 7.78634C13.0894 8.21368 12.8914 8.60784 12.6963 8.96881C12.5012 9.32977 12.3075 9.68083 12.1152 10.022L11.633 9.96994C11.5279 9.44588 11.4466 8.89591 11.3891 8.32002C11.335 7.74449 11.296 7.12034 11.2722 6.44756L11.7793 6.50229C11.7897 6.7648 11.8018 7.02749 11.8155 7.29036C11.8293 7.55322 11.8456 7.80967 11.8645 8.05969C11.8839 8.3064 11.9046 8.54322 11.9268 8.77013C11.9489 8.99704 11.975 9.20762 12.005 9.40188C12.186 9.06955 12.3799 8.70511 12.5867 8.30854C12.7939 7.90868 12.993 7.49453 13.1841 7.06611L13.6016 7.11119C13.6691 7.56751 13.75 8.01188 13.8444 8.4443C13.9392 8.87342 14.0286 9.26845 14.1128 9.62939C14.1916 9.45025 14.273 9.25294 14.3569 9.03748C14.4409 8.82201 14.5245 8.59647 14.6079 8.36084C14.695 8.12227 14.7814 7.87692 14.8671 7.62478C14.9532 7.36934 15.0375 7.11538 15.1199 6.86289L15.612 6.91601C15.4005 7.56339 15.1876 8.16036 14.9733 8.70691C14.7624 9.25382 14.5355 9.77052 14.2926 10.257L13.8104 10.205C13.7144 9.83269 13.623 9.45086 13.5364 9.05949C13.4498 8.66812 13.3678 8.24373 13.2904 7.78634Z" fill="#444444"/>
<defs>
<filter id="filter0_d_209_910" x="0.448364" y="0.131958" width="31.423" height="31.7665" filterUnits="userSpaceOnUse" color-interpolation-filters="sRGB">
<feFlood flood-opacity="0" result="BackgroundImageFix"/>
<feColorMatrix in="SourceAlpha" type="matrix" values="0 0 0 0 0 0 0 0 0 0 0 0 0 0 0 0 0 0 127 0" result="hardAlpha"/>
<feOffset dy="4"/>
<feGaussianBlur stdDeviation="4"/>
<feComposite in2="hardAlpha" operator="out"/>
<feColorMatrix type="matrix" values="0 0 0 0 0 0 0 0 0 0 0 0 0 0 0 0 0 0 0.25 0"/>
<feBlend mode="normal" in2="BackgroundImageFix" result="effect1_dropShadow_209_910"/>
<feBlend mode="normal" in="SourceGraphic" in2="effect1_dropShadow_209_910" result="shape"/>
</filter>
</defs>
</svg>
