<svg width="20" height="21" viewBox="0 0 20 21" fill="none" xmlns="http://www.w3.org/2000/svg">
<path d="M18.9162 20.8904H1.08383C0.485264 20.8904 0 20.5071 0 20.0345V1.78004C0 1.30735 0.485264 0.924133 1.08383 0.924133H14.2818L20 5.39144V20.0345C20 20.5071 19.5148 20.8904 18.9162 20.8904Z" fill="#DCE2E2"/>
<path d="M11.8022 4.29804H2.40013C2.29401 4.29804 2.19223 4.26374 2.11719 4.20268C2.04216 4.14162 2 4.0588 2 3.97245C2 3.88609 2.04216 3.80328 2.11719 3.74222C2.19223 3.68115 2.29401 3.64685 2.40013 3.64685H11.8023C11.9084 3.64686 12.0102 3.68117 12.0852 3.74223C12.1603 3.8033 12.2024 3.88611 12.2024 3.97247C12.2024 4.05882 12.1602 4.14164 12.0852 4.20269C12.0101 4.26375 11.9084 4.29805 11.8022 4.29804ZM10.7597 6.21315C10.7597 6.12679 10.7176 6.04398 10.6425 5.98291C10.5675 5.92185 10.4657 5.88755 10.3596 5.88755H2.40013C2.29401 5.88755 2.19223 5.92185 2.11719 5.98291C2.04216 6.04398 2 6.12679 2 6.21315C2 6.2995 2.04216 6.38232 2.11719 6.44338C2.19223 6.50444 2.29401 6.53874 2.40013 6.53874H10.3596C10.4657 6.53874 10.5675 6.50444 10.6425 6.44338C10.7176 6.38232 10.7597 6.2995 10.7597 6.21315ZM17 8.45384C17 8.36749 16.9578 8.28467 16.8828 8.22361C16.8078 8.16255 16.706 8.12825 16.5999 8.12825H2.40013C2.29401 8.12825 2.19223 8.16255 2.11719 8.22361C2.04216 8.28467 2 8.36749 2 8.45384C2 8.5402 2.04216 8.62301 2.11719 8.68407C2.19223 8.74514 2.29401 8.77944 2.40013 8.77944H16.5999C16.706 8.77944 16.8078 8.74514 16.8828 8.68407C16.9578 8.62301 17 8.5402 17 8.45384ZM16.1089 10.6945C16.1089 10.6081 16.0667 10.5253 15.9917 10.4643C15.9166 10.4032 15.8149 10.3689 15.7087 10.3689H2.40013C2.29401 10.3689 2.19223 10.4032 2.11719 10.4643C2.04216 10.5253 2 10.6081 2 10.6945C2 10.7809 2.04216 10.8637 2.11719 10.9247C2.19223 10.9858 2.29401 11.0201 2.40013 11.0201H15.7088C15.7613 11.0201 15.8134 11.0117 15.8619 10.9953C15.9105 10.9789 15.9546 10.955 15.9917 10.9247C16.0289 10.8945 16.0583 10.8586 16.0784 10.8191C16.0985 10.7796 16.1089 10.7373 16.1089 10.6945ZM10.7597 12.9352C10.7597 12.8488 10.7176 12.766 10.6425 12.705C10.5675 12.6439 10.4657 12.6096 10.3596 12.6096H2.40013C2.29401 12.6096 2.19223 12.6439 2.11719 12.705C2.04216 12.766 2 12.8488 2 12.9352C2 13.0216 2.04216 13.1044 2.11719 13.1654C2.19223 13.2265 2.29401 13.2608 2.40013 13.2608H10.3596C10.4121 13.2608 10.4642 13.2524 10.5127 13.236C10.5613 13.2197 10.6054 13.1957 10.6425 13.1654C10.6797 13.1352 10.7092 13.0993 10.7293 13.0598C10.7494 13.0203 10.7597 12.978 10.7597 12.9352ZM17 15.1759C17 15.0895 16.9578 15.0067 16.8828 14.9457C16.8078 14.8846 16.706 14.8503 16.5999 14.8503H2.40013C2.29401 14.8503 2.19223 14.8846 2.11719 14.9457C2.04216 15.0067 2 15.0895 2 15.1759C2 15.2622 2.04216 15.3451 2.11719 15.4061C2.19223 15.4672 2.29401 15.5015 2.40013 15.5015H16.5999C16.706 15.5015 16.8078 15.4672 16.8828 15.4061C16.9578 15.3451 17 15.2622 17 15.1759ZM17 17.4166C17 17.3302 16.9578 17.2474 16.8828 17.1864C16.8078 17.1253 16.706 17.091 16.5999 17.091H2.40013C2.29401 17.091 2.19223 17.1253 2.11719 17.1864C2.04216 17.2474 2 17.3302 2 17.4166C2 17.5029 2.04216 17.5858 2.11719 17.6468C2.19223 17.7079 2.29401 17.7422 2.40013 17.7422H16.5999C16.706 17.7422 16.8078 17.7079 16.8828 17.6468C16.9578 17.5858 17 17.5029 17 17.4166ZM17 19.6573C17 19.5709 16.9578 19.4881 16.8828 19.427C16.8078 19.366 16.706 19.3317 16.5999 19.3317H2.40013C2.29401 19.3317 2.19223 19.366 2.11719 19.427C2.04216 19.4881 2 19.5709 2 19.6573C2 19.7436 2.04216 19.8264 2.11719 19.8875C2.19223 19.9485 2.29401 19.9828 2.40013 19.9828H16.5999C16.706 19.9828 16.8078 19.9485 16.8828 19.8875C16.9578 19.8264 17 19.7436 17 19.6573Z" fill="#96A9B2"/>
</svg>
