<svg width="17" height="19" viewBox="0 0 17 19" fill="none" xmlns="http://www.w3.org/2000/svg">
<path d="M13.9593 17.3024C12.6314 18.0691 11.2389 18.2572 9.78179 17.8668C8.3247 17.4764 7.21282 16.6172 6.44615 15.2893L1.19615 6.19604C0.646152 5.24341 0.514512 4.23207 0.801232 3.16201C1.08795 2.09196 1.70763 1.28193 2.66025 0.731934C3.61288 0.181934 4.62422 0.0502936 5.69427 0.337013C6.76433 0.623733 7.57435 1.24341 8.12435 2.19604L12.8744 10.4233C13.2244 11.0295 13.3109 11.6627 13.134 12.323C12.9571 12.9832 12.5655 13.4883 11.9593 13.8383C11.3531 14.1883 10.7198 14.2749 10.0596 14.098C9.39935 13.9211 8.89423 13.5295 8.54423 12.9233L3.79423 4.69604L5.09327 3.94604L9.84327 12.1733C9.98493 12.4187 10.1867 12.5762 10.4487 12.6459C10.7104 12.7165 10.9639 12.681 11.2093 12.5393C11.4547 12.3976 11.6125 12.1957 11.6828 11.9334C11.7528 11.672 11.717 11.4187 11.5753 11.1733L6.82532 2.94604C6.47532 2.33982 5.97019 1.94825 5.30995 1.77134C4.6497 1.59443 4.01647 1.68097 3.41025 2.03097C2.80404 2.38097 2.41247 2.88609 2.23556 3.54634C2.05865 4.20659 2.14519 4.83982 2.49519 5.44604L7.74519 14.5393C8.29519 15.4919 9.10522 16.1116 10.1753 16.3983C11.2453 16.685 12.2567 16.5534 13.2093 16.0034C14.1619 15.4534 14.7816 14.6434 15.0683 13.5733C15.355 12.5033 15.2234 11.4919 14.6734 10.5393L9.42339 1.44604L10.7224 0.696035L15.9724 9.7893C16.7391 11.1172 16.9272 12.5097 16.5368 13.9668C16.1464 15.4239 15.2872 16.5358 13.9593 17.3024Z" fill="#444444"/>
</svg>
