<svg width="17" height="9" viewBox="0 0 17 9" fill="none" xmlns="http://www.w3.org/2000/svg">
<path d="M0.625296 1.24978C0.624782 0.986924 0.716329 0.732184 0.884045 0.529782C0.978488 0.415867 1.09448 0.321702 1.22537 0.252681C1.35626 0.18366 1.49948 0.141139 1.64683 0.127554C1.79418 0.113969 1.94276 0.129586 2.08406 0.173511C2.22536 0.217436 2.35662 0.288805 2.47029 0.383532L8.5003 5.42353L14.5415 0.563533C14.6566 0.470084 14.789 0.400298 14.9312 0.358188C15.0733 0.316077 15.2223 0.302471 15.3698 0.318153C15.5172 0.333835 15.66 0.378493 15.7901 0.449564C15.9202 0.520635 16.035 0.616715 16.1278 0.732283C16.2302 0.848682 16.3075 0.984994 16.3547 1.13266C16.4019 1.28033 16.4181 1.43617 16.4023 1.5904C16.3865 1.74463 16.3389 1.89392 16.2626 2.0289C16.1863 2.16388 16.083 2.28164 15.959 2.37478L9.20905 7.80853C9.00775 7.974 8.75525 8.06446 8.49467 8.06446C8.23409 8.06446 7.9816 7.974 7.7803 7.80853L1.0303 2.18353C0.894152 2.07068 0.78653 1.92731 0.716162 1.76508C0.645795 1.60284 0.614663 1.4263 0.625296 1.24978Z" fill="#444444"/>
</svg>
