<svg width="10" height="19" viewBox="0 0 10 19" fill="none" xmlns="http://www.w3.org/2000/svg">
<path d="M4.79629 2.225C3.69629 2.225 2.62129 2.50833 1.57129 3.075L0.921289 1.275C1.48796 0.974999 2.12129 0.733333 2.82129 0.55C3.53796 0.366666 4.29629 0.274999 5.09629 0.274999C6.04629 0.274999 6.82129 0.408332 7.42129 0.675C8.03796 0.924999 8.52962 1.25 8.89629 1.65C9.26296 2.05 9.51296 2.5 9.64629 3C9.79629 3.48333 9.87129 3.95 9.87129 4.4C9.87129 4.96667 9.76296 5.475 9.54629 5.925C9.32962 6.35833 9.06296 6.76667 8.74629 7.15C8.42962 7.53333 8.07962 7.9 7.69629 8.25C7.31296 8.6 6.96296 8.96667 6.64629 9.35C6.32962 9.71667 6.06296 10.125 5.84629 10.575C5.62962 11.0083 5.52129 11.5 5.52129 12.05C5.52129 12.1333 5.52129 12.225 5.52129 12.325C5.52129 12.425 5.52962 12.5167 5.54629 12.6H3.59629C3.52962 12.2667 3.49629 11.9167 3.49629 11.55C3.49629 11.0167 3.58796 10.5333 3.77129 10.1C3.97129 9.66667 4.22129 9.26667 4.52129 8.9C4.82129 8.51667 5.13796 8.16667 5.47129 7.85C5.80462 7.51667 6.12129 7.18333 6.42129 6.85C6.72129 6.51667 6.96296 6.16667 7.14629 5.8C7.34629 5.43333 7.44629 5.03333 7.44629 4.6C7.44629 3.9 7.22129 3.33333 6.77129 2.9C6.32129 2.45 5.66296 2.225 4.79629 2.225ZM6.37129 16.65C6.37129 17.1 6.22129 17.4917 5.92129 17.825C5.62129 18.1583 5.21296 18.325 4.69629 18.325C4.17962 18.325 3.77129 18.1583 3.47129 17.825C3.17129 17.4917 3.02129 17.1 3.02129 16.65C3.02129 16.2 3.17129 15.8083 3.47129 15.475C3.77129 15.1417 4.17962 14.975 4.69629 14.975C5.21296 14.975 5.62129 15.1417 5.92129 15.475C6.22129 15.8083 6.37129 16.2 6.37129 16.65Z" fill="#444444"/>
</svg>
